PathFileType	4	(X/Y/Z)	/Users/itak/Documents/Research/Walk-IL/dataset/trc/00033_00004.trc
DataRate	CameraRate	NumFrames	NumMarkers	Units	OrigDataRate	OrigDataStartFrame	OrigNumFrames
100.000000	100.000000	4	53	mm	100.000000	207	829
Frame#	Time	RPSI			LPSI			L3			STRN			T10			C7			CLAV			RBAK			LBAK			LSHO			LUPA			LAEL			LAOL			LWTS			LWPS			LFRA			LIFD			LHPS			LHTS			RSHO			RUPA			RAEL			RAOL			RWTS			RWPS			RFRA			RIFD			RHTS			RHPS			RBHD			LFHD			RFHD			LBHD			LHIP			RHIP			RASI			LASI			LKNE			LTHI			LANK			LTIP			LTOE			LMT1			LMT5			LHEE			RKNE			RTHI			RANK			RTIP			RTOE			RMT1			RMT5			RHEE			
		X1	Y1	Z1	X2	Y2	Z2	X3	Y3	Z3	X4	Y4	Z4	X5	Y5	Z5	X6	Y6	Z6	X7	Y7	Z7	X8	Y8	Z8	X9	Y9	Z9	X10	Y10	Z10	X11	Y11	Z11	X12	Y12	Z12	X13	Y13	Z13	X14	Y14	Z14	X15	Y15	Z15	X16	Y16	Z16	X17	Y17	Z17	X18	Y18	Z18	X19	Y19	Z19	X20	Y20	Z20	X21	Y21	Z21	X22	Y22	Z22	X23	Y23	Z23	X24	Y24	Z24	X25	Y25	Z25	X26	Y26	Z26	X27	Y27	Z27	X28	Y28	Z28	X29	Y29	Z29	X30	Y30	Z30	X31	Y31	Z31	X32	Y32	Z32	X33	Y33	Z33	X34	Y34	Z34	X35	Y35	Z35	X36	Y36	Z36	X37	Y37	Z37	X38	Y38	Z38	X39	Y39	Z39	X40	Y40	Z40	X41	Y41	Z41	X42	Y42	Z42	X43	Y43	Z43	X44	Y44	Z44	X45	Y45	Z45	X46	Y46	Z46	X47	Y47	Z47	X48	Y48	Z48	X49	Y49	Z49	X50	Y50	Z50	X51	Y51	Z51	X52	Y52	Z52	X53	Y53	Z53	

208	2.07	-59.35905838012695	1045.189697265625	777.1265258789062	-128.9557800292969	1050.134765625	924.9120483398438	-91.63991546630859	1107.466552734375	856.902587890625	-282.8851013183594	1285.2744140625	718.1639404296875	-70.24072265625	1251.532348632812	853.470703125	-115.352294921875	1515.15625	801.23486328125	-245.5286102294922	1412.168701171875	726.197509765625	-29.19813346862793	1372.359497070312	780.6491088867188	-150.9486541748047	1489.8017578125	898.0126342773438	-275.9348754882812	1496.000366210938	904.6218872070312	-285.0470275878906	1389.602416992188	1008.753112792969	-287.9284362792969	1182.734741210938	1076.50390625	-190.9730834960938	1170.05078125	1037.30712890625	-313.5641784667969	916.91796875	1016.370971679688	-285.0850830078125	916.47509765625	1100.762451171875	-298.2601623535156	1067.388549804688	1092.50634765625	-310.7953491210938	728.4247436523438	1015.369079589844	-306.5846252441406	823.0631713867188	1091.065551757812	-333.8962097167969	822.052978515625	1026.324096679688	-85.49591064453125	1473.712280273438	617.9388427734375	-34.17153549194336	1398.964965820312	576.1879272460938	19.9301929473877	1135.486083984375	605.57958984375	-34.36864852905273	1115.106079101562	687.79931640625	-115.6999130249023	879.9409790039062	576.018798828125	-26.15851020812988	857.1199340820312	561.5372924804688	17.22397613525391	1056.872680664062	592.522705078125	-146.0530548095703	700.4844970703125	608.5772094726562	-145.0720672607422	771.6498413085938	557.144287109375	-71.23513793945312	756.8353881835938	550.3062744140625	-232.3387603759766	1694.0634765625	784.4617309570312	-212.3216400146484	1672.846801757812	567.3507080078125	-297.7711486816406	1686.141845703125	614.2119140625	-111.1524429321289	1671.583984375	709.5545654296875	-259.8880004882812	948.7446899414062	993.166259765625	-124.4043807983398	923.1945190429688	647.8253784179688	-245.8277740478516	956.5443115234375	668.2734985351562	-338.5567016601562	988.5570678710938	881.646728515625	-322.1392211914062	492.3260192871094	989.9136962890625	-301.0237731933594	642.2393188476562	1006.675659179688	77.46318054199219	229.9820098876953	1191.303466796875	-122.3402709960938	367.3556823730469	1110.558837890625	-19.15969276428223	51.96282958984375	1095.263549804688	14.43023490905762	102.0966796875	1087.519897460938	8.845698356628418	125.5885467529297	1191.268920898438	126.2799987792969	288.1221313476562	1152.161499023438	-258.0817565917969	509.9937133789062	652.1176147460938	-165.4098663330078	765.0667724609375	629.2011108398438	-283.1719055175781	40.822998046875	819.9888916015625	-268.4305419921875	380.847412109375	682.3621826171875	-458.427001953125	43.40174865722656	660.3433227539062	-443.5832214355469	51.9182243347168	727.4481201171875	-355.5887756347656	42.80268096923828	688.5128173828125	-287.6460266113281	45.17008209228516	890.4208374023438	
209	2.08	-64.82233428955078	1046.084594726562	773.0355834960938	-136.9692687988281	1050.96484375	919.650634765625	-98.45375823974609	1108.330322265625	852.2755737304688	-287.3046264648438	1286.438598632812	711.0427856445312	-76.78231811523438	1252.35595703125	849.28173828125	-120.6946334838867	1516.09521484375	796.3748779296875	-250.0285797119141	1413.339233398438	719.5586547851562	-34.45868301391602	1373.178833007812	777.0697021484375	-157.5807189941406	1490.77197265625	892.6930541992188	-282.6632080078125	1497.177978515625	897.6340942382812	-293.2403259277344	1390.654296875	1001.511413574219	-297.3381042480469	1183.613037109375	1068.8603515625	-199.8352813720703	1170.983032226562	1030.926025390625	-321.8687438964844	917.5756225585938	1008.940673828125	-294.2880249023438	917.4293823242188	1093.818603515625	-307.7024536132812	1068.287231445312	1084.931762695312	-318.2347412109375	729.006591796875	1008.888122558594	-315.4384460449219	823.9609985351562	1084.173095703125	-341.9792175292969	822.6787719726562	1019.081848144531	-88.28319549560547	1474.56640625	613.5458374023438	-36.50578689575195	1399.701416015625	572.495361328125	16.11695861816406	1135.852661132812	602.302490234375	-39.45703125	1115.5390625	683.6678466796875	-120.8117752075195	881.3660888671875	569.7587280273438	-31.19659423828125	857.9747924804688	556.762451171875	13.15017986297607	1057.254150390625	589.0070190429688	-151.1974945068359	701.9536743164062	601.8297729492188	-150.6723937988281	773.4303588867188	549.957275390625	-76.86235046386719	758.0527954101562	544.3290405273438	-237.2294769287109	1695.235595703125	777.62744140625	-214.7919769287109	1673.4990234375	560.77490234375	-300.7851867675781	1686.898803710938	606.658447265625	-115.2775802612305	1672.619750976562	704.1399536132812	-269.538330078125	949.60888671875	985.388916015625	-127.869873046875	923.7844848632812	642.899169921875	-249.54052734375	957.5010986328125	661.0968017578125	-345.9504089355469	989.8038330078125	872.6773681640625	-338.6968078613281	493.5096435546875	976.78173828125	-315.7882690429688	643.1372680664062	995.7523193359375	54.65595626831055	230.9452209472656	1188.796020507812	-142.6365509033203	368.3545532226562	1102.522338867188	-42.78133773803711	53.67649078369141	1092.738891601562	-8.07607364654541	103.0344543457031	1085.138671875	-15.88053417205811	128.1402130126953	1188.379760742188	105.3223419189453	288.0027160644531	1150.166381835938	-259.7104797363281	509.3896179199219	649.5802001953125	-168.1767883300781	764.9550170898438	625.0258178710938	-283.2203063964844	40.89167022705078	820.050048828125	-269.587158203125	380.3912963867188	680.60498046875	-458.4545288085938	43.40131378173828	660.1737060546875	-443.5025634765625	52.04727172851562	727.304931640625	-355.48193359375	42.75421524047852	688.4122924804688	-287.6891784667969	45.46642684936523	890.4694213867188	
210	2.09	-70.15546417236328	1046.970947265625	769.0166625976562	-144.8351745605469	1051.816162109375	914.3920288085938	-105.1519241333008	1109.22119140625	847.6754760742188	-291.5730895996094	1287.643310546875	703.9889526367188	-83.18265533447266	1253.212036132812	845.1563110351562	-125.924201965332	1517.067749023438	791.6469116210938	-254.3714752197266	1414.546875	713.0260620117188	-39.62866973876953	1374.045288085938	773.6111450195312	-164.1248779296875	1491.761352539062	887.4655151367188	-289.2650756835938	1498.39013671875	890.7183227539062	-301.3303527832031	1391.7373046875	994.3025512695312	-306.6050415039062	1184.53173828125	1061.2294921875	-208.6278381347656	1171.920532226562	1024.488159179688	-330.2052612304688	918.2882690429688	1001.51416015625	-303.4318237304688	918.4119873046875	1086.799926757812	-317.0386047363281	1069.218994140625	1077.35986328125	-325.9879455566406	729.6768798828125	1002.295104980469	-324.3165893554688	824.9041748046875	1077.233520507812	-350.1735229492188	823.3923950195312	1011.849487304688	-90.94322204589844	1475.49267578125	609.323974609375	-38.7147331237793	1400.515014648438	568.9757080078125	12.41494846343994	1136.302124023438	599.2348022460938	-44.49089431762695	1116.065307617188	679.6912231445312	-125.7121887207031	882.8652954101562	563.577880859375	-36.04877853393555	858.9073486328125	552.1786499023438	9.214476585388184	1057.724609375	585.7019653320312	-156.1938629150391	703.5309448242188	595.0278930664062	-155.9604949951172	775.2799682617188	542.8316650390625	-82.21047973632812	759.3519287109375	538.4844360351562	-242.0000915527344	1696.4521484375	770.9189453125	-217.1008453369141	1674.19482421875	554.3584594726562	-303.645751953125	1687.683471679688	599.2498168945312	-119.2887420654297	1673.717163085938	698.8801879882812	-279.0374755859375	950.5137939453125	977.5150146484375	-131.0755157470703	924.3748168945312	638.08154296875	-253.0537719726562	958.486083984375	653.9102172851562	-353.1377563476562	991.0839233398438	863.6343383789062	-354.6588745117188	494.9334411621094	963.2675170898438	-330.0897521972656	644.1885375976562	984.5982055664062	31.03601264953613	230.7233734130859	1185.8388671875	-162.9151153564453	369.0391845703125	1094.052490234375	-67.81438446044922	54.77437591552734	1089.461791992188	-31.8176326751709	103.1440887451172	1082.151489257812	-41.7259635925293	129.7308807373047	1184.819458007812	83.73246002197266	286.4718933105469	1147.91064453125	-261.1678466796875	508.8219909667969	647.2901000976562	-170.8275909423828	764.8380737304688	620.977294921875	-283.2727355957031	40.97047424316406	820.1189575195312	-270.59033203125	379.9926147460938	679.070556640625	-458.4646606445312	43.39948272705078	659.9985961914062	-443.4094848632812	52.18275451660156	727.1624145507812	-355.3806762695312	42.708984375	688.31787109375	-287.7279663085938	45.76141738891602	890.5282592773438	
211	2.1	-75.37432098388672	1047.8447265625	765.0706176757812	-152.5688323974609	1052.679809570312	909.1416625976562	-111.7436218261719	1110.133178710938	843.1098022460938	-295.70654296875	1288.879638671875	696.9834594726562	-89.45675659179688	1254.097534179688	841.0840454101562	-131.0558471679688	1518.066162109375	787.0353393554688	-258.5688171386719	1415.778564453125	706.5835571289062	-44.72272872924805	1374.948486328125	770.25390625	-170.6070709228516	1492.764526367188	882.3134155273438	-295.7572937011719	1499.62353515625	883.855712890625	-309.34716796875	1392.841552734375	987.1055297851562	-315.7525634765625	1185.489868164062	1053.613647460938	-217.3618011474609	1172.868774414062	1018.022521972656	-338.5586242675781	919.0596923828125	994.0844116210938	-312.5442199707031	919.419677734375	1079.70849609375	-326.2891235351562	1070.18408203125	1069.789428710938	-334.0604248046875	730.443115234375	995.52490234375	-333.2310180664062	825.8870239257812	1070.224243164062	-358.4669799804688	824.1918334960938	1004.587097167969	-93.48888397216797	1476.48193359375	605.2590942382812	-40.8150520324707	1401.39990234375	565.6126708984375	8.818037033081055	1136.833129882812	596.36083984375	-49.44546127319336	1116.68701171875	675.8630981445312	-130.4006958007812	884.4314575195312	557.5066528320312	-40.72315216064453	859.902099609375	547.7931518554688	5.406548023223877	1058.277587890625	582.5983276367188	-161.2454376220703	705.246826171875	588.106689453125	-160.9482269287109	777.1929321289062	535.8010864257812	-87.28909301757812	760.72265625	532.79736328125	-246.6579742431641	1697.697631835938	764.3325805664062	-219.2579650878906	1674.94189453125	548.1002807617188	-306.3530883789062	1688.504638671875	591.9835815429688	-123.1879653930664	1674.859375	693.7738037109375	-288.3955993652344	951.4481811523438	969.5635986328125	-134.0199432373047	924.9686279296875	633.3824462890625	-256.3724060058594	959.4866943359375	646.7139282226562	-360.1198425292969	992.3920288085938	854.5166015625	-369.9925231933594	496.5661926269531	949.3955078125	-343.9307250976562	645.365966796875	973.22216796875	6.651265144348145	229.3328552246094	1182.389892578125	-183.1096038818359	369.4044189453125	1085.185546875	-94.16718292236328	55.29484558105469	1085.237426757812	-56.72609710693359	102.5016784667969	1078.400390625	-68.63283538818359	130.4328765869141	1180.456787109375	61.55887603759766	283.5396728515625	1145.380615234375	-262.4485168457031	508.289794921875	645.2296142578125	-173.3690338134766	764.7255859375	617.04248046875	-283.3233032226562	41.0606689453125	820.1930541992188	-271.4376831054688	379.6542358398438	677.7474365234375	-458.4543151855469	43.40139007568359	659.821044921875	-443.3017883300781	52.32601165771484	727.021240234375	-355.2861633300781	42.66726684570312	688.2299194335938	-287.768798828125	46.04693984985352	890.5957641601562	
